<?xml version="1.0" encoding="utf-8"?>
<!-- Generator: Adobe Illustrator 16.0.0, SVG Export Plug-In . SVG Version: 6.00 Build 0)  -->
<!DOCTYPE svg PUBLIC "-//W3C//DTD SVG 1.1//EN" "http://www.w3.org/Graphics/SVG/1.1/DTD/svg11.dtd">
<svg version="1.1" id="Layer_1" xmlns="http://www.w3.org/2000/svg" xmlns:xlink="http://www.w3.org/1999/xlink" x="0px" y="0px"
	 width="1200px" height="300px" viewBox="0 0 1200 300" enable-background="new 0 0 1200 300" xml:space="preserve">
<path fill="#DDDDDD" d="M318,99c0,12-1,27-1,33s-2,9-8,11c-3,1-5,2-5,3s1,2,5,2c5,0,10,0,14,0c6,0,16,1,22,1c2,0,4-1,4-2
	c0-2-1-3-4-3c-8-3-9-4-9-13c-1-4-1-11-1-28c0-25,0-30,1-34c0-4,0-8,8-9c2,0,4-2,4-3s-2-2-4-2c-5,0-10,0-18,0c-4,0-12,0-16,0
	c-3,0-5,1-5,2s1,2,4,3c8,2,8,4,8,11C318,76,318,92,318,99z M355,97c0,0,1,0,2,2c3,3,4,4,4,6c0,14,0,26,0,31c-1,5-2,6-6,8
	c-2,0-3,1-3,2s1,2,3,2c3,0,9,0,14,0c3,0,8,0,11,0s4-1,4-2s-1-2-2-2c-5-2-5-3-5-5s-1-33-1-36c1,0,1-2,2-3c2-1,4-3,10-3c3,0,6,2,8,3
	c2,2,3,6,3,9c0,4,0,22,0,27s-1,6-5,8c-1,0-3,1-3,2c0,2,2,2,4,2s8,0,11,0c4,0,10,0,14,0c2,0,4-1,4-2s-1-2-4-3c-4-1-5-2-5-5
	c0-2,0-23,0-26c0-8-2-14-6-18c-2-2-6-6-13-6s-13,4-19,8h-1c0-2,0-5,0-7c0-1-1-2-1-2c-1,0-3,1-5,2s-9,4-12,4C357,94,355,96,355,97z
	 M466,89c-6,0-14,2-20,5c-7,4-16,12-16,27c0,7,3,16,8,21c5,4,10,7,18,7c5,0,13-3,18-7c0,0,1,0,1,1c0,2,0,5,0,6s1,2,1,2c1,0,3-1,7-2
	c2-1,11-2,15-3c1,0,3-3,3-4c0,0,0-1-1-1s-6,1-7,1s-2-2-2-11c-1-2-1,2-1-28c0-33,1-50,1-55c1-2,0-3-1-3s-2,0-3,1c-4,1-14,3-18,4
	c-1,0-3,2-3,3c0,0,1,1,2,1c6,3,6,5,7,6c0,4,1,23,0,28l-1,1C471,89,469,89,466,89z M460,94c3,0,8,2,12,6c2,2,3,5,3,6c0,6,0,20,0,25
	c0,3-1,7-2,7c-2,2-4,3-7,3c-11,0-20-12-20-25c0-5,2-13,6-18C455,95,458,94,460,94z M538,140c-3,0-6-1-8-2c-2-2-3-4-3-7
	c0-6,0-28,0-39c0-1-1-3-1-3c-1,0-16,2-20,2c-2,0-3,1-3,2s2,2,3,3c3,1,5,2,5,6c0,8,0,22,0,32c0,2,1,6,2,8c3,5,8,8,15,8c4,0,7-1,9-3
	c2,0,7-3,11-6c0,0,0,0,0,1c0,2,0,5,0,6s1,2,2,2c0,0,5-1,7-2c4-1,11-3,15-3c1,0,2-1,2-2c0,0-1-3-2-3c-2,0-5,1-6,1c-2,0-2-3-2-3
	c0-5,0-42,0-47c0-1,0-2-1-2s-2,0-4,0c-4,1-13,2-19,2c-1,0-2,1-2,2s1,2,2,2c2,1,4,2,6,2c2,1,2,3,2,4v32c0,1-1,3-1,4
	C544,139,540,140,538,140z M602,88c-5,0-9,2-12,3c-6,4-10,10-10,15c0,8,5,13,11,16c4,3,6,4,10,7s6,5,6,8c0,2-1,5-3,6s-4,2-6,2
	c-4,0-9-3-14-11c-1-2-2-3-4-3c0,0-1,1-1,3c0,5,2,11,3,12c2,3,10,4,14,4s12-2,15-4c5-3,9-8,9-15c0-6-2-12-14-18c-7-4-13-8-13-13
	c0-4,4-7,7-7c6,0,9,3,12,9c1,2,3,4,4,4s2-2,2-3s0-8-1-10c0-1,0-2-1-2c0,0-3-1-5-2C609,89,606,88,602,88z M743,53c-15,0-30,5-40,13
	c-10,9-16,21-16,35c0,20,9,30,15,37c9,8,24,12,39,12c4,0,16-1,22-2c6-2,11-3,13-4c1,0,3-1,3-2s-1-1-2-2c-2-2-2-3-2-5c0-6,0-16,0-18
	c1-2,0-4,5-5c2-1,4-2,4-3s-1-2-4-2c-6,0-14,1-17,1c-4,0-12-1-18-1c-3,0-5,1-5,2c0,2,2,3,5,3c9,1,10,4,11,7c1,2,1,8,1,13s-1,9-3,11
	c-3,2-8,2-9,2c-13,0-25-7-31-19c-4-7-6-16-6-26c0-23,13-42,35-42c11,0,20,6,23,10c2,2,5,7,6,10c1,2,2,4,2,4c2,0,3-2,3-4
	c0-6-2-13-2-17c0-3-1-4-2-4s-4,0-7-1C761,55,753,53,743,53z M794,97c0,1,3,3,5,5c1,1,1,3,1,6c0,9,0,20,0,24c0,9,0,10-6,12
	c-1,0-3,1-3,2c0,2,2,2,4,2c3,0,6,0,9,0c9,0,16,1,21,1c2,0,4-1,4-2s-1-2-3-3c-2,0-5-1-6-1c-2-1-3-4-4-8c0-2-1-28-1-31c0-1,1-2,2-2
	c1-1,2-1,3-1c3,0,8,2,10,4h2c1,0,6-6,7-8c1-1,1-2,1-3c0-2-2-6-8-6c-5,0-11,5-16,9c0,1-1,0-1,0c0-3,1-6,1-8c0-1-1-2-2-2s-2,1-4,2
	s-9,3-14,5C794,95,794,97,794,97z M1007,140c-3,0-6-1-8-2c-1-2-3-4-3-7c0-6,1-28,0-39c0-1,0-3-1-3c0,0-16,2-20,2c-1,0-2,1-2,2
	s1,2,2,3c3,1,5,2,5,6c1,8,1,22,1,32c0,2,0,6,1,8c4,5,8,8,15,8c4,0,7-1,10-3c1,0,6-3,10-6c0,0,1,0,1,1c0,2-1,5-1,6s1,2,2,2
	c0,0,5-1,8-2s11-3,14-3c1,0,2-1,2-2c0,0-1-3-2-3s-5,1-6,1c-2,0-2-3-2-3c0-5,0-42,1-47c0-1-1-2-2-2s-2,0-3,0c-4,1-14,2-19,2
	c-2,0-3,1-3,2s1,2,2,2c2,1,4,2,6,2c2,1,3,3,3,4v32c0,1-1,3-2,4C1013,139,1009,140,1007,140z M1090,89c-5,0-8,1-10,2s-6,3-9,4
	c-1,1-1,0-1-1c0-2,0-4,0-6c0-1-1-3-2-3c0,0-1,1-2,2c-4,2-12,5-15,5c-2,1-3,3-3,4s3,3,5,5c1,1,1,1,1,4c0,6,0,22,0,32c0,15,0,26,0,31
	c-1,9-1,10-8,12c-3,0-4,2-4,3s2,2,4,2c6,0,8-1,12-1c5,0,15,1,19,1c2,0,4-1,4-2s-1-2-3-3c-6-2-7-4-8-8c0-3,0-15,0-22c0,0,0-2,1-2
	c2,1,5,1,7,1c5,0,15-1,23-8c8-6,12-14,12-25c0-8-3-15-7-19C1102,92,1095,89,1090,89z M1080,97c2,0,7,2,11,6c5,6,6,14,6,17
	c0,2-1,17-9,22c-2,1-3,2-5,2c-3,0-9-3-12-8c-1-2-1-5-1-7c-1-8-1-20,0-26c0-2,1-4,2-4C1074,98,1077,97,1080,97z"/>
<path fill="#DDDDDD" d="M126,118c0,0-3-3-4-4s-2-1-3-2c-1,0-6-2-7-1c-2,1-3,2-4,0c-1-1-1-1-2-2c-1,0,0-1,0-2s-1-2-1-1c-1,1-3,2-4,1
	c0,0-1-4,1-5c2,0,4,0,5,1l1,2c1,0,1-2,1-3s2-2,3-4c0-1,1-2,2-3c0,0,1,0,2-1s2-1,3-2l3-1c1,0,2,0,1-1s-2-5-3-6c-1-2-1-2-2-4
	c0-1-1-3-1-2c-1,1-2,3-2,2c-1-2-1-2-1-2c-1-1-2-1-2-1c-1-1-2,0-2,1c0,0-1,2,0,3c0,1,1,3,0,3s0,3-1,3s-1,0-1-1s0-2-1-2s-2-1-3-2
	s-2,0-2-2s0-2,1-3s2-2,2-1c1,0,2,0,2,0c1-1,2,0,2-1s-1-1-1-2s0,0,1-2c0-2-2-4-3-4c-1,1-4,3-4,2s-1-1-3,0c-2,0-9-1-10-1l-1-1
	c-1,1-4,0-4,0c-1,0-2,1-3,1s-4-1-5-2c-1,0-2,0-2,0c-1-1-3-1-3,0c-1,0-2,1-3,2c0,0-1,0,0,2c0,1-2,2-2,4c1,1,0,5,3,6c2,1,4,1,6,0
	c1-1,4-1,4,0c1,2,1,4,4,5c2,1,4,4,4,6c0,1,0,6,2,9c3,3,5,8,5,7c1-2,1-3,1-2c1,1,2,4,4,4c2,1,3,1,4,2c1,0,2,1,3,1c1,1,3,2,3,3
	c1,0,0,2,0,3s-1,2,0,3c0,1,2,5,3,6c1,0,2,1,2,3c-1,2-2,9-2,11c0,1-1,7,0,9s4,3,5,2c1,0,0,0-1-1c0-1,0-2,0-3c1-1,1-2,1-3
	c-1-1,0-2,0-2c1-1,4-3,4-4c1-1,7-8,7-8c1-1,3-2,3-4c1-2,2-6,1-7S126,118,126,118z"/>
<path fill="#DDDDDD" d="M139,61c0,0,1-2,1-3h-20c0,1,1,5,1,7c0,1,0,1,1,2c1,0,0,1,0,2s0,3,1,5c1,3,2,6,3,6s1,1,1,1c1-1,1-2,2-4
	c0-1,0-3,2-4c1,0,5-3,6-4s2-2,2-3C139,64,138,62,139,61z"/>
<path fill="#DDDDDD" d="M239,69c-1,0-6-4-8-3c-2,0-5-2-6-2c0,0-5-2-7-2s-7-1-9-2s-4-6-8-5c-1,0-6,1-7,2s-2,3-3,3c0,0-3,0-3,1
	s1,4,0,4c0-1-1-2-2-1c0,1-1,1-1,1s-2,0-3,1c0,0-2,2-4,2c-1,0-1,1-2,1l-5,2c-1-1-1-1-2-1c0,0-2,0-3-1c0-1-1-1-2-2s-1-2-2-2
	c-1,1-6,5-8,8c-1,2-5,4-3,6c2,1,2,1,3,2c0,1,0,2,0,2s2,1,3,0c1-2,1-3,2-3c0,1,1,1,0,2c0,2-1,4-2,3c-2,0-3-1-4,0c0,0-1,0-1,1
	c-1,0-3,2-4,3c-1,0-3,0-2,1s2,3,1,3s-3,0-3,1s-1,2,0,3c0,0,1,2,2,1c1,0,3-1,3-2c1-1,1-2,3-2c1,0,4,1,4,2s-1,2,0,1c0,0,1-1,2-1l1,1
	c0,1,1,1,2,0c0-1,0,0,1,0c1,1,3,1,3,1c1,0,1,1,0,2s-2,2-3,1c-2-1-3,1-5,0c-1-1-1-2-3-3s-6,0-8,1c-1,0-1,0-2,1c0,1-4,5-4,7
	c0,3,1,10,6,9s7,0,7,1c-1,1,0,2,0,3c1,2,3,12,3,14c1,1,0,4,2,3c2,0,5-1,6-3c0-2,1-4,2-5s2-1,2-3c1-1,0-5,1-6s4-5,5-6c0-2,1-2-1-2
	c-1,0-4-1-5-2c0-1-2-4-2-5c0,0,1,0,2,1c0,1,2,5,4,5c2-1,5-2,5-4c0-1-1-2-2-2s-2-1-2-2c0,0,0,0,1,0c1,1,2,2,4,2s4,2,5,3c1,0,3,6,3,6
	c0,1,1,1,1,0c1-1,3-5,4-6s1-2,2-1c0,1,3,3,3,4s0,4,1,3c0-1,1-2,1-2c1,1,1,2,2,1s3-1,2-3s0-3,0-3c1,0,6-1,6-3c0-3-2-4-1-6
	c1-1,2-2,3-2c0,1-1,4,0,3c1,0,3,0,3-1s-1-3,0-3c0-1,4-4,5-6c0-1,1-2,0-3s-2-1-1-2c1-2,3-3,4-3c4,0,3,4,3,5c0,2,0,4,1,3c0-1,1-3,2-4
	s2-2,2-3s0-1,1-2s6-2,6-4c1-1,0-2,1-2s2,1,3,1c0-1,2-2,2-3S240,70,239,69z"/>
<path fill="#DDDDDD" d="M218,92c0,1,0,1-1,3s0,1-1,2s-2,1-2,2c-1,1-2,2-2,2c-1,2,4-1,5-2c2-1,1-2,1-3c1-2,1-2,2-3c0,0,0-1-1-2
	C219,90,219,91,218,92z"/>
<path fill="#DDDDDD" d="M205,122c0,0,0-1,1-1c1,1,1,1,2,1c1-1,2-1,1-2c0,0,0-1,0-2s-1-1-2,0s-2,2-2,1c0,0,1-1,0-2c0-1,0-1-1-1
	c-1,1-2,1-2,2c-1,0-1,2-2,1s-3-3-3-3s-3-2-2-1c1,2,2,4,3,5s1,2,2,1c1,0,1,0,2,0C203,122,205,123,205,122z"/>
<path fill="#DDDDDD" d="M221,121c-2-1-1-1-2-2c-2,0-3,0-4,0c0,0-2-1-2,0c1,1,2,1,3,1c0,1-1,1,0,2c1,0,1,1,3,1c1,0,1,0,2,0s2,0,1,0
	c0-1,0-1,0-2C222,121,222,121,221,121z"/>
<path fill="#DDDDDD" d="M220,127c0-2-1-4-2-3c0,1-2,2-2,2c-1,0-1-1-1-1c0-1,0-1-1-1c-2,0-2,2-3,2c0,0-1-1-2,0c0,1-1,2-2,2
	c0,1-3,1-3,2s1,3,1,4s-2,3,0,3c1,1,1,1,2,0c2,0,6-2,7-1l1,1c1,1,1,2,3,2c1,1,1,1,2,1c0,0,2-1,2-2c1-1,1-3,2-4c0-1,0-2-1-3
	C223,130,221,128,220,127z"/>
<g>
	<path fill="#DDDDDD" d="M957,114c0-28-22-50-50-50c-27,0-49,22-49,50c0,27,22,49,49,49C935,163,957,141,957,114z"/>
	<path fill="#FEFEFE" d="M957,114c0-10-3-20-8-27c0,0-3,4-2,6c0,3,3,3,3,5s-3,0-5,5c-3,5-2,12,2,12C951,116,957,114,957,114z"/>
	<path fill="#FEFEFE" d="M920,66c6,1,12,4,16,7c0,0-6-1-8,1s-5,7-8,0C918,68,920,66,920,66z"/>
	<path fill="#FEFEFE" d="M870,81c9-11,22-17,37-17c0,0-3,2,3,5c7,4,4,5,2,6c-1,2-3-2-5-4c-1-2-8-5-13-3c-5,1-9,3-8,4c1,2,9-1,12-1
		s2,2-1,4c-3,3-3,6,0,7c3,2,7,2,8,1s-1-8,5-5s11,5,6,9c-5,5-11,10-11,13s2,5,1,5c-2,0-2-1-3-2s-4-1-6-1c-1,1-4,3-3,5c2,3,4,2,7,3
		c2,1,4,5,4,6c-1,1-3,0-4-4c-2-3-5-1-7-1c-2-1-4-1-6-5c-2-3-7-5-8-7c-5-6-5-10-6-13C873,84,870,81,870,81z"/>
	<path fill="#FEFEFE" d="M912,114c0,0,5,1,8,3s3,3,7,4s6,3,3,8c-2,4-7,11-9,13c-3,3-6,4-7,8c-1,3-1,6,1,7c0,0-1,3-4-1s0-8,0-11
		c1-3,2-11,1-13s-5-3-6-7S907,113,912,114z"/>
</g>
<line fill="none" stroke="#FF0000" stroke-width="2.3622" x1="48" y1="196" x2="1153" y2="196"/>
<g>
	<path fill="#DDDDDD" d="M66,242l5,1c-1,4-3,7-6,9c-2,2-5,3-9,3s-7-1-9-2c-2-2-4-4-5-7c-2-3-2-6-2-9c0-4,1-7,2-10c1-2,3-4,6-6
		c2-1,5-2,8-2c4,0,7,1,9,3s4,4,5,7l-5,1c0-2-2-4-3-5c-2-1-4-2-6-2c-3,0-5,1-7,2c-1,1-3,3-3,5c-1,2-1,5-1,7c0,3,0,5,1,8c1,2,2,3,4,5
		c2,1,4,1,6,1s5-1,6-2C64,247,65,245,66,242z M75,238c0-6,1-11,4-14c4-3,8-5,12-5s7,1,9,2c3,2,5,4,6,7s2,6,2,9c0,4-1,7-2,10
		c-1,2-3,5-6,6s-6,2-9,2s-6-1-8-2c-3-2-5-4-6-7C75,243,75,241,75,238z M80,238c0,4,1,7,3,10c2,2,5,3,8,3c4,0,7-1,9-4c2-2,3-5,3-10
		c0-3,0-5-1-7s-2-4-4-5s-4-2-6-2c-4,0-7,1-9,3C81,229,80,232,80,238z M114,254v-34h5l18,27v-27h4v34h-4l-19-27v27H114z M148,243h4
		c0,2,1,3,1,4c1,1,2,2,4,3c1,1,3,1,5,1s4,0,5-1c1,0,2-1,3-2s1-2,1-3s0-2-1-3s-2-1-3-2c-1,0-3-1-6-2c-4,0-6-1-7-2c-2-1-3-2-4-3
		s-1-3-1-4c0-2,0-4,1-5c1-2,3-3,5-4s4-1,6-1c3,0,5,0,7,1s3,2,5,4c1,2,1,3,1,5l-4,1c0-2-1-4-3-5c-1-1-3-2-6-2c-2,0-4,1-6,2
		c-1,1-2,2-2,3c0,2,1,3,2,3c1,1,3,2,7,3c3,1,6,2,7,2c2,1,4,2,5,4c1,1,1,3,1,5s0,3-1,5s-3,3-5,4s-4,1-7,1s-5,0-7-1c-3-1-4-3-5-4
		C148,248,148,246,148,243z M204,220h5v20c0,3,0,6-1,8s-2,4-5,5c-2,1-4,2-8,2c-3,0-6,0-8-2c-2-1-3-2-4-4c-1-3-1-6-1-9v-20h4v20
		c0,3,1,5,1,6c1,2,2,3,3,4s3,1,5,1c3,0,6-1,7-2c2-2,2-5,2-9V220z M216,254v-34h5v30h17v4H216z M249,254v-30h-12v-4h28v4h-12v30H249z
		 M270,254v-34h5v34H270z M283,254v-34h5l18,27v-27h5v34h-5l-18-27v27H283z M335,241v-4h14v13c-2,1-4,3-7,4c-2,1-5,1-7,1
		c-4,0-7-1-9-2c-3-2-5-4-7-6c-1-3-2-6-2-10c0-3,1-6,2-9c2-3,4-5,6-7c3-1,6-2,10-2c2,0,4,0,6,1s4,2,5,4c1,1,2,3,3,5l-4,2
		c-1-2-2-4-2-5c-1-1-2-1-4-2c-1-1-3-1-4-1c-3,0-4,0-6,1c-1,1-3,1-4,3c-1,1-1,2-2,3c-1,2-1,4-1,7s0,6,2,8c1,2,2,3,4,4s4,2,7,2
		c2,0,4,0,5-1c2-1,4-2,5-3v-6H335z M418,254v-30h-11v-4h27v4h-11v30H418z M439,254v-34h25v4h-20v10h19v5h-19v11h21v4H439z M496,242
		l5,1c-1,4-3,7-5,9c-3,2-6,3-10,3c-3,0-6-1-9-2c-2-2-4-4-5-7s-2-6-2-9c0-4,1-7,2-10c1-2,3-4,6-6c3-1,5-2,8-2c4,0,7,1,9,3
		c3,2,4,4,5,7l-4,1c-1-2-2-4-4-5c-1-1-3-2-6-2c-2,0-5,1-6,2c-2,1-3,3-4,5s-1,5-1,7c0,3,0,5,1,8c1,2,2,3,4,5c2,1,4,1,6,1c3,0,5-1,6-2
		C494,247,495,245,496,242z M507,254v-34h4v14h18v-14h5v34h-5v-16h-18v16H507z M541,254v-34h5l18,27v-27h5v34h-5l-18-27v27H541z
		 M575,238c0-6,2-11,5-14s7-5,12-5c3,0,6,1,9,2c2,2,4,4,5,7c2,3,2,6,2,9c0,4,0,7-2,10c-1,2-3,5-6,6c-2,1-5,2-8,2s-6-1-9-2
		c-3-2-4-4-6-7C576,243,575,241,575,238z M580,238c0,4,1,7,3,10c3,2,5,3,9,3c3,0,6-1,8-4c3-2,4-5,4-10c0-3-1-5-2-7s-2-4-4-5
		s-4-2-6-2c-3,0-6,1-9,3C581,229,580,232,580,238z M614,254v-34h5v30h17v4H614z M640,238c0-6,2-11,5-14s7-5,12-5c3,0,6,1,8,2
		c3,2,5,4,6,7c2,3,2,6,2,9c0,4,0,7-2,10c-1,2-3,5-6,6s-5,2-8,2c-4,0-7-1-9-2c-3-2-5-4-6-7S640,241,640,238z M645,238c0,4,1,7,3,10
		c2,2,5,3,9,3c3,0,6-1,8-4c2-2,4-5,4-10c0-3-1-5-2-7s-2-4-4-5s-4-2-6-2c-4,0-6,1-9,3C646,229,645,232,645,238z M695,241v-4h15v13
		c-2,1-4,3-7,4c-2,1-5,1-7,1c-4,0-7-1-10-2c-2-2-4-4-6-6c-1-3-2-6-2-10c0-3,1-6,2-9c2-3,4-5,6-7c3-1,6-2,9-2s5,0,7,1s4,2,5,4
		c1,1,2,3,3,5l-4,2c-1-2-2-4-2-5c-1-1-2-1-4-2c-1-1-3-1-5-1s-3,0-5,1s-3,1-4,3c-1,1-1,2-2,3c-1,2-1,4-1,7s0,6,1,8s3,3,5,4s4,2,7,2
		c2,0,3,0,5-1s4-2,5-3v-6H695z M727,254v-14l-14-20h6l7,10c1,2,2,4,3,6c1-2,3-4,4-6l7-10h5l-14,20v14H727z M801,238c0-6,2-11,5-14
		s7-5,12-5c3,0,6,1,8,2c3,2,5,4,6,7c2,3,2,6,2,9c0,4,0,7-2,10c-1,2-3,5-6,6c-2,1-5,2-8,2c-4,0-6-1-9-2c-3-2-5-4-6-7S801,241,801,238
		z M806,238c0,4,1,7,3,10c3,2,5,3,9,3c3,0,6-1,8-4c3-2,4-5,4-10c0-3-1-5-2-7s-2-4-4-5s-4-2-6-2c-3,0-6,1-9,3
		C807,229,806,232,806,238z M863,220h5v20c0,3-1,6-1,8c-1,2-3,4-5,5s-4,2-8,2c-3,0-6,0-8-2c-2-1-3-2-4-4c-1-3-2-6-2-9v-20h5v20
		c0,3,0,5,1,6c0,2,1,3,3,4c1,1,3,1,5,1c3,0,6-1,7-2c1-2,2-5,2-9V220z M884,254v-30h-11v-4h27v4h-11v30H884z M904,243h4c0,2,1,3,1,4
		c1,1,2,2,4,3c1,1,3,1,5,1s3,0,5-1c1,0,2-1,3-2c0-1,1-2,1-3s0-2-1-3s-2-1-3-2c-1,0-3-1-6-2c-4,0-6-1-7-2c-2-1-3-2-4-3s-1-3-1-4
		c0-2,0-4,1-5c1-2,3-3,5-4s4-1,6-1c3,0,5,0,7,1s3,2,5,4c1,2,1,3,1,5l-4,1c0-2-1-4-3-5c-1-1-3-2-6-2c-2,0-4,1-6,2c-1,1-2,2-2,3
		c0,2,1,3,2,3c1,1,3,2,7,3c3,1,6,2,7,2c2,1,4,2,5,4c1,1,1,3,1,5s0,3-1,5s-3,3-5,4s-4,1-7,1s-5,0-7-1c-3-1-4-3-5-4
		C904,248,904,246,904,243z M936,238c0-6,2-11,5-14s7-5,12-5c3,0,6,1,8,2c3,2,5,4,6,7c2,3,2,6,2,9c0,4,0,7-2,10c-1,2-3,5-6,6
		c-2,1-5,2-8,2c-4,0-6-1-9-2c-3-2-5-4-6-7S936,241,936,238z M941,238c0,4,1,7,3,10c2,2,5,3,9,3c3,0,6-1,8-4c3-2,4-5,4-10
		c0-3-1-5-2-7s-2-4-4-5s-4-2-6-2c-3,0-6,1-9,3C942,229,941,232,941,238z M998,220h5v20c0,3-1,6-1,8c-1,2-3,4-5,5s-5,2-8,2s-6,0-8-2
		c-2-1-3-2-4-4c-1-3-2-6-2-9v-20h5v20c0,3,0,5,1,6c0,2,1,3,3,4c1,1,3,1,5,1c3,0,6-1,7-2c1-2,2-5,2-9V220z M1010,254v-34h16
		c3,0,5,0,7,1c2,0,3,1,4,3c1,1,1,3,1,5c0,3-1,5-2,6c-2,2-4,3-8,4c2,0,3,1,3,1c2,2,3,3,4,5l6,9h-6l-4-7c-2-2-3-3-4-5c0-1-1-1-2-2
		c-1,0-1-1-2-1s-1,0-3,0h-5v15H1010z M1015,235h10c2,0,4,0,5-1c1,0,2-1,3-2c0-1,1-2,1-3s-1-3-2-4s-3-1-6-1h-11V235z M1070,242l5,1
		c-1,4-3,7-5,9c-3,2-6,3-10,3c-3,0-6-1-9-2c-2-2-4-4-5-7s-2-6-2-9c0-4,1-7,2-10c2-2,4-4,6-6c3-1,6-2,9-2s6,1,8,3c3,2,4,4,5,7l-4,1
		c-1-2-2-4-4-5c-1-1-3-2-6-2c-2,0-4,1-6,2s-3,3-4,5s-1,5-1,7c0,3,0,5,1,8c1,2,2,3,4,5c2,1,4,1,6,1c3,0,5-1,7-2
		C1068,247,1070,245,1070,242z M1081,254v-34h5v34H1081z M1094,254v-34h5l18,27v-27h4v34h-4l-19-27v27H1094z M1145,241v-4h15v13
		c-2,1-4,3-7,4c-2,1-5,1-7,1c-4,0-7-1-10-2c-2-2-4-4-6-6c-1-3-2-6-2-10c0-3,1-6,2-9c2-3,4-5,6-7c3-1,6-2,9-2s5,0,7,1s4,2,5,4
		c1,1,2,3,3,5l-5,2c0-2-1-4-1-5c-1-1-2-1-4-2c-1-1-3-1-5-1s-3,0-5,1s-3,1-4,3c-1,1-1,2-2,3c-1,2-1,4-1,7s0,6,1,8s3,3,5,4s4,2,7,2
		c2,0,3,0,5-1s4-2,5-3v-6H1145z"/>
	<path fill="#DDDDDD" d="M369,236l2-6c4,2,8,3,10,4c-1-5-1-8-1-10h6c0,3,0,6-1,10c3-1,6-3,10-4l2,6c-4,1-7,2-11,3c2,1,5,4,8,8l-5,3
		c-2-2-4-5-6-9c-2,4-4,7-6,9l-5-3c4-4,6-7,7-8C376,238,372,237,369,236z"/>
	<path fill="#DDDDDD" d="M759,236l2-6c4,2,7,3,9,4c0-5,0-8,0-10h6c0,3-1,6-1,10c3-1,6-3,10-4l2,6c-4,1-7,2-11,3c2,1,4,4,8,8l-6,3
		c-1-2-3-5-5-9c-3,4-4,7-6,9l-5-3c3-4,6-7,7-8C765,238,762,237,759,236z"/>
</g>
</svg>
