<?xml version="1.0" encoding="UTF-8"?>
<!DOCTYPE svg PUBLIC "-//W3C//DTD SVG 1.1//EN" "http://www.w3.org/Graphics/SVG/1.1/DTD/svg11.dtd">
<!-- Creator: CorelDRAW X7 -->
<svg xmlns="http://www.w3.org/2000/svg" xml:space="preserve" width="1200px" height="300px" version="1.1" style="shape-rendering:geometricPrecision; text-rendering:geometricPrecision; image-rendering:optimizeQuality; fill-rule:evenodd; clip-rule:evenodd"
viewBox="0 0 1200 300"
 xmlns:xlink="http://www.w3.org/1999/xlink">
 <defs>
  <style type="text/css">
   <![CDATA[
    .str0 {stroke:red;stroke-width:2.3622}
    .fil3 {fill:none}
    .fil2 {fill:#FEFEFE}
    .fil1 {fill:#E31E24}
    .fil0 {fill:black;fill-rule:nonzero}
    .fil4 {fill:red;fill-rule:nonzero}
   ]]>
  </style>
 </defs>
 <g id="Layer_x0020_1">
  <metadata id="CorelCorpID_0Corel-Layer"/>
  <g id="_2891283136720">
   <g>
    <path class="fil0" d="M318 99c0,12 -1,27 -1,33 0,6 -2,9 -8,11 -3,1 -5,2 -5,3 0,1 1,2 5,2 5,0 10,0 14,0 6,0 16,1 22,1 2,0 4,-1 4,-2 0,-2 -1,-3 -4,-3 -8,-3 -9,-4 -9,-13 -1,-4 -1,-11 -1,-28 0,-25 0,-30 1,-34 0,-4 0,-8 8,-9 2,0 4,-2 4,-3 0,-1 -2,-2 -4,-2 -5,0 -10,0 -18,0 -4,0 -12,0 -16,0 -3,0 -5,1 -5,2 0,1 1,2 4,3 8,2 8,4 8,11 1,5 1,21 1,28zm37 -2c0,0 1,0 2,2 3,3 4,4 4,6 0,14 0,26 0,31 -1,5 -2,6 -6,8 -2,0 -3,1 -3,2 0,1 1,2 3,2 3,0 9,0 14,0 3,0 8,0 11,0 3,0 4,-1 4,-2 0,-1 -1,-2 -2,-2 -5,-2 -5,-3 -5,-5 0,-2 -1,-33 -1,-36 1,0 1,-2 2,-3 2,-1 4,-3 10,-3 3,0 6,2 8,3 2,2 3,6 3,9 0,4 0,22 0,27 0,5 -1,6 -5,8 -1,0 -3,1 -3,2 0,2 2,2 4,2 2,0 8,0 11,0 4,0 10,0 14,0 2,0 4,-1 4,-2 0,-1 -1,-2 -4,-3 -4,-1 -5,-2 -5,-5 0,-2 0,-23 0,-26 0,-8 -2,-14 -6,-18 -2,-2 -6,-6 -13,-6 -7,0 -13,4 -19,8 0,0 -1,0 -1,0 0,-2 0,-5 0,-7 0,-1 -1,-2 -1,-2 -1,0 -3,1 -5,2 -2,1 -9,4 -12,4 -1,1 -3,3 -3,4zm111 -8c-6,0 -14,2 -20,5 -7,4 -16,12 -16,27 0,7 3,16 8,21 5,4 10,7 18,7 5,0 13,-3 18,-7 0,0 1,0 1,1 0,2 0,5 0,6 0,1 1,2 1,2 1,0 3,-1 7,-2 2,-1 11,-2 15,-3 1,0 3,-3 3,-4 0,0 0,-1 -1,-1 -1,0 -6,1 -7,1 -1,0 -2,-2 -2,-11 -1,-2 -1,2 -1,-28 0,-33 1,-50 1,-55 1,-2 0,-3 -1,-3 -1,0 -2,0 -3,1 -4,1 -14,3 -18,4 -1,0 -3,2 -3,3 0,0 1,1 2,1 6,3 6,5 7,6 0,4 1,23 0,28 0,0 -1,1 -1,1 -3,0 -5,0 -8,0zm-6 5c3,0 8,2 12,6 2,2 3,5 3,6 0,6 0,20 0,25 0,3 -1,7 -2,7 -2,2 -4,3 -7,3 -11,0 -20,-12 -20,-25 0,-5 2,-13 6,-18 3,-3 6,-4 8,-4zm78 46c-3,0 -6,-1 -8,-2 -2,-2 -3,-4 -3,-7 0,-6 0,-28 0,-39 0,-1 -1,-3 -1,-3 -1,0 -16,2 -20,2 -2,0 -3,1 -3,2 0,1 2,2 3,3 3,1 5,2 5,6 0,8 0,22 0,32 0,2 1,6 2,8 3,5 8,8 15,8 4,0 7,-1 9,-3 2,0 7,-3 11,-6 0,0 0,0 0,1 0,2 0,5 0,6 0,1 1,2 2,2 0,0 5,-1 7,-2 4,-1 11,-3 15,-3 1,0 2,-1 2,-2 0,0 -1,-3 -2,-3 -2,0 -5,1 -6,1 -2,0 -2,-3 -2,-3 0,-5 0,-42 0,-47 0,-1 0,-2 -1,-2 -1,0 -2,0 -4,0 -4,1 -13,2 -19,2 -1,0 -2,1 -2,2 0,1 1,2 2,2 2,1 4,2 6,2 2,1 2,3 2,4l0 32c0,1 -1,3 -1,4 -3,2 -7,3 -9,3zm64 -52c-5,0 -9,2 -12,3 -6,4 -10,10 -10,15 0,8 5,13 11,16 4,3 6,4 10,7 4,3 6,5 6,8 0,2 -1,5 -3,6 -2,1 -4,2 -6,2 -4,0 -9,-3 -14,-11 -1,-2 -2,-3 -4,-3 0,0 -1,1 -1,3 0,5 2,11 3,12 2,3 10,4 14,4 4,0 12,-2 15,-4 5,-3 9,-8 9,-15 0,-6 -2,-12 -14,-18 -7,-4 -13,-8 -13,-13 0,-4 4,-7 7,-7 6,0 9,3 12,9 1,2 3,4 4,4 1,0 2,-2 2,-3 0,-1 0,-8 -1,-10 0,-1 0,-2 -1,-2 0,0 -3,-1 -5,-2 -2,0 -5,-1 -9,-1zm141 -35c-15,0 -30,5 -40,13 -10,9 -16,21 -16,35 0,20 9,30 15,37 9,8 24,12 39,12 4,0 16,-1 22,-2 6,-2 11,-3 13,-4 1,0 3,-1 3,-2 0,-1 -1,-1 -2,-2 -2,-2 -2,-3 -2,-5 0,-6 0,-16 0,-18 1,-2 0,-4 5,-5 2,-1 4,-2 4,-3 0,-1 -1,-2 -4,-2 -6,0 -14,1 -17,1 -4,0 -12,-1 -18,-1 -3,0 -5,1 -5,2 0,2 2,3 5,3 9,1 10,4 11,7 1,2 1,8 1,13 0,5 -1,9 -3,11 -3,2 -8,2 -9,2 -13,0 -25,-7 -31,-19 -4,-7 -6,-16 -6,-26 0,-23 13,-42 35,-42 11,0 20,6 23,10 2,2 5,7 6,10 1,2 2,4 2,4 2,0 3,-2 3,-4 0,-6 -2,-13 -2,-17 0,-3 -1,-4 -2,-4 -1,0 -4,0 -7,-1 -5,-1 -13,-3 -23,-3zm51 44c0,1 3,3 5,5 1,1 1,3 1,6 0,9 0,20 0,24 0,9 0,10 -6,12 -1,0 -3,1 -3,2 0,2 2,2 4,2 3,0 6,0 9,0 9,0 16,1 21,1 2,0 4,-1 4,-2 0,-1 -1,-2 -3,-3 -2,0 -5,-1 -6,-1 -2,-1 -3,-4 -4,-8 0,-2 -1,-28 -1,-31 0,-1 1,-2 2,-2 1,-1 2,-1 3,-1 3,0 8,2 10,4 0,0 2,0 2,0 1,0 6,-6 7,-8 1,-1 1,-2 1,-3 0,-2 -2,-6 -8,-6 -5,0 -11,5 -16,9 0,1 -1,0 -1,0 0,-3 1,-6 1,-8 0,-1 -1,-2 -2,-2 -1,0 -2,1 -4,2 -2,1 -9,3 -14,5 -2,1 -2,3 -2,3zm213 43c-3,0 -6,-1 -8,-2 -1,-2 -3,-4 -3,-7 0,-6 1,-28 0,-39 0,-1 0,-3 -1,-3 0,0 -16,2 -20,2 -1,0 -2,1 -2,2 0,1 1,2 2,3 3,1 5,2 5,6 1,8 1,22 1,32 0,2 0,6 1,8 4,5 8,8 15,8 4,0 7,-1 10,-3 1,0 6,-3 10,-6 0,0 1,0 1,1 0,2 -1,5 -1,6 0,1 1,2 2,2 0,0 5,-1 8,-2 3,-1 11,-3 14,-3 1,0 2,-1 2,-2 0,0 -1,-3 -2,-3 -1,0 -5,1 -6,1 -2,0 -2,-3 -2,-3 0,-5 0,-42 1,-47 0,-1 -1,-2 -2,-2 -1,0 -2,0 -3,0 -4,1 -14,2 -19,2 -2,0 -3,1 -3,2 0,1 1,2 2,2 2,1 4,2 6,2 2,1 3,3 3,4l0 32c0,1 -1,3 -2,4 -3,2 -7,3 -9,3zm83 -51c-5,0 -8,1 -10,2 -2,1 -6,3 -9,4 -1,1 -1,0 -1,-1 0,-2 0,-4 0,-6 0,-1 -1,-3 -2,-3 0,0 -1,1 -2,2 -4,2 -12,5 -15,5 -2,1 -3,3 -3,4 0,1 3,3 5,5 1,1 1,1 1,4 0,6 0,22 0,32 0,15 0,26 0,31 -1,9 -1,10 -8,12 -3,0 -4,2 -4,3 0,1 2,2 4,2 6,0 8,-1 12,-1 5,0 15,1 19,1 2,0 4,-1 4,-2 0,-1 -1,-2 -3,-3 -6,-2 -7,-4 -8,-8 0,-3 0,-15 0,-22 0,0 0,-2 1,-2 2,1 5,1 7,1 5,0 15,-1 23,-8 8,-6 12,-14 12,-25 0,-8 -3,-15 -7,-19 -4,-5 -11,-8 -16,-8zm-10 8c2,0 7,2 11,6 5,6 6,14 6,17 0,2 -1,17 -9,22 -2,1 -3,2 -5,2 -3,0 -9,-3 -12,-8 -1,-2 -1,-5 -1,-7 -1,-8 -1,-20 0,-26 0,-2 1,-4 2,-4 2,-1 5,-2 8,-2z"/>
    <path class="fil1" d="M126 118c0,0 -3,-3 -4,-4 -1,-1 -2,-1 -3,-2 -1,0 -6,-2 -7,-1 -2,1 -3,2 -4,0 -1,-1 -1,-1 -2,-2 -1,0 0,-1 0,-2 0,-1 -1,-2 -1,-1 -1,1 -3,2 -4,1 0,0 -1,-4 1,-5 2,0 4,0 5,1 0,0 1,2 1,2 1,0 1,-2 1,-3 0,-1 2,-2 3,-4 0,-1 1,-2 2,-3 0,0 1,0 2,-1 1,-1 2,-1 3,-2 0,0 3,-1 3,-1 1,0 2,0 1,-1 -1,-1 -2,-5 -3,-6 -1,-2 -1,-2 -2,-4 0,-1 -1,-3 -1,-2 -1,1 -2,3 -2,2 -1,-2 -1,-2 -1,-2 -1,-1 -2,-1 -2,-1 -1,-1 -2,0 -2,1 0,0 -1,2 0,3 0,1 1,3 0,3 -1,0 0,3 -1,3 -1,0 -1,0 -1,-1 0,-1 0,-2 -1,-2 -1,0 -2,-1 -3,-2 -1,-1 -2,0 -2,-2 0,-2 0,-2 1,-3 1,-1 2,-2 2,-1 1,0 2,0 2,0 1,-1 2,0 2,-1 0,-1 -1,-1 -1,-2 0,-1 0,0 1,-2 0,-2 -2,-4 -3,-4 -1,1 -4,3 -4,2 0,-1 -1,-1 -3,0 -2,0 -9,-1 -10,-1 0,0 -1,-1 -1,-1 -1,1 -4,0 -4,0 -1,0 -2,1 -3,1 -1,0 -4,-1 -5,-2 -1,0 -2,0 -2,0 -1,-1 -3,-1 -3,0 -1,0 -2,1 -3,2 0,0 -1,0 0,2 0,1 -2,2 -2,4 1,1 0,5 3,6 2,1 4,1 6,0 1,-1 4,-1 4,0 1,2 1,4 4,5 2,1 4,4 4,6 0,1 0,6 2,9 3,3 5,8 5,7 1,-2 1,-3 1,-2 1,1 2,4 4,4 2,1 3,1 4,2 1,0 2,1 3,1 1,1 3,2 3,3 1,0 0,2 0,3 0,1 -1,2 0,3 0,1 2,5 3,6 1,0 2,1 2,3 -1,2 -2,9 -2,11 0,1 -1,7 0,9 1,2 4,3 5,2 1,0 0,0 -1,-1 0,-1 0,-2 0,-3 1,-1 1,-2 1,-3 -1,-1 0,-2 0,-2 1,-1 4,-3 4,-4 1,-1 7,-8 7,-8 1,-1 3,-2 3,-4 1,-2 2,-6 1,-7 -1,-1 -6,-2 -6,-2z"/>
    <path class="fil1" d="M139 61c0,0 1,-2 1,-3l-20 0c0,1 1,5 1,7 0,1 0,1 1,2 1,0 0,1 0,2 0,1 0,3 1,5 1,3 2,6 3,6 1,0 1,1 1,1 1,-1 1,-2 2,-4 0,-1 0,-3 2,-4 1,0 5,-3 6,-4 1,-1 2,-2 2,-3 0,-2 -1,-4 0,-5z"/>
    <path class="fil1" d="M239 69c-1,0 -6,-4 -8,-3 -2,0 -5,-2 -6,-2 0,0 -5,-2 -7,-2 -2,0 -7,-1 -9,-2 -2,-1 -4,-6 -8,-5 -1,0 -6,1 -7,2 -1,1 -2,3 -3,3 0,0 -3,0 -3,1 0,1 1,4 0,4 0,-1 -1,-2 -2,-1 0,1 -1,1 -1,1 0,0 -2,0 -3,1 0,0 -2,2 -4,2 -1,0 -1,1 -2,1 0,0 -5,2 -5,2 -1,-1 -1,-1 -2,-1 0,0 -2,0 -3,-1 0,-1 -1,-1 -2,-2 -1,-1 -1,-2 -2,-2 -1,1 -6,5 -8,8 -1,2 -5,4 -3,6 2,1 2,1 3,2 0,1 0,2 0,2 0,0 2,1 3,0 1,-2 1,-3 2,-3 0,1 1,1 0,2 0,2 -1,4 -2,3 -2,0 -3,-1 -4,0 0,0 -1,0 -1,1 -1,0 -3,2 -4,3 -1,0 -3,0 -2,1 1,1 2,3 1,3 -1,0 -3,0 -3,1 0,1 -1,2 0,3 0,0 1,2 2,1 1,0 3,-1 3,-2 1,-1 1,-2 3,-2 1,0 4,1 4,2 0,1 -1,2 0,1 0,0 1,-1 2,-1 0,0 1,1 1,1 0,1 1,1 2,0 0,-1 0,0 1,0 1,1 3,1 3,1 1,0 1,1 0,2 -1,1 -2,2 -3,1 -2,-1 -3,1 -5,0 -1,-1 -1,-2 -3,-3 -2,-1 -6,0 -8,1 -1,0 -1,0 -2,1 0,1 -4,5 -4,7 0,3 1,10 6,9 5,-1 7,0 7,1 -1,1 0,2 0,3 1,2 3,12 3,14 1,1 0,4 2,3 2,0 5,-1 6,-3 0,-2 1,-4 2,-5 1,-1 2,-1 2,-3 1,-1 0,-5 1,-6 1,-1 4,-5 5,-6 0,-2 1,-2 -1,-2 -1,0 -4,-1 -5,-2 0,-1 -2,-4 -2,-5 0,0 1,0 2,1 0,1 2,5 4,5 2,-1 5,-2 5,-4 0,-1 -1,-2 -2,-2 -1,0 -2,-1 -2,-2 0,0 0,0 1,0 1,1 2,2 4,2 2,0 4,2 5,3 1,0 3,6 3,6 0,1 1,1 1,0 1,-1 3,-5 4,-6 1,-1 1,-2 2,-1 0,1 3,3 3,4 0,1 0,4 1,3 0,-1 1,-2 1,-2 1,1 1,2 2,1 1,-1 3,-1 2,-3 -1,-2 0,-3 0,-3 1,0 6,-1 6,-3 0,-3 -2,-4 -1,-6 1,-1 2,-2 3,-2 0,1 -1,4 0,3 1,0 3,0 3,-1 0,-1 -1,-3 0,-3 0,-1 4,-4 5,-6 0,-1 1,-2 0,-3 -1,-1 -2,-1 -1,-2 1,-2 3,-3 4,-3 4,0 3,4 3,5 0,2 0,4 1,3 0,-1 1,-3 2,-4 1,-1 2,-2 2,-3 0,-1 0,-1 1,-2 1,-1 6,-2 6,-4 1,-1 0,-2 1,-2 1,0 2,1 3,1 0,-1 2,-2 2,-3 0,-1 -2,-2 -3,-3z"/>
    <path class="fil1" d="M218 92c0,1 0,1 -1,3 -1,2 0,1 -1,2 -1,1 -2,1 -2,2 -1,1 -2,2 -2,2 -1,2 4,-1 5,-2 2,-1 1,-2 1,-3 1,-2 1,-2 2,-3 0,0 0,-1 -1,-2 0,-1 0,0 -1,1z"/>
    <path class="fil1" d="M205 122c0,0 0,-1 1,-1 1,1 1,1 2,1 1,-1 2,-1 1,-2 0,0 0,-1 0,-2 0,-1 -1,-1 -2,0 -1,1 -2,2 -2,1 0,0 1,-1 0,-2 0,-1 0,-1 -1,-1 -1,1 -2,1 -2,2 -1,0 -1,2 -2,1 -1,-1 -3,-3 -3,-3 0,0 -3,-2 -2,-1 1,2 2,4 3,5 1,1 1,2 2,1 1,0 1,0 2,0 1,1 3,2 3,1z"/>
    <path class="fil1" d="M221 121c-2,-1 -1,-1 -2,-2 -2,0 -3,0 -4,0 0,0 -2,-1 -2,0 1,1 2,1 3,1 0,1 -1,1 0,2 1,0 1,1 3,1 1,0 1,0 2,0 1,0 2,0 1,0 0,-1 0,-1 0,-2 0,0 0,0 -1,0z"/>
    <path class="fil1" d="M220 127c0,-2 -1,-4 -2,-3 0,1 -2,2 -2,2 -1,0 -1,-1 -1,-1 0,-1 0,-1 -1,-1 -2,0 -2,2 -3,2 0,0 -1,-1 -2,0 0,1 -1,2 -2,2 0,1 -3,1 -3,2 0,1 1,3 1,4 0,1 -2,3 0,3 1,1 1,1 2,0 2,0 6,-2 7,-1 0,0 1,1 1,1 1,1 1,2 3,2 1,1 1,1 2,1 0,0 2,-1 2,-2 1,-1 1,-3 2,-4 0,-1 0,-2 -1,-3 0,-1 -2,-3 -3,-4z"/>
    <g>
     <path class="fil1" d="M957 114c0,-28 -22,-50 -50,-50 -27,0 -49,22 -49,50 0,27 22,49 49,49 28,0 50,-22 50,-49z"/>
     <path class="fil2" d="M957 114c0,-10 -3,-20 -8,-27 0,0 -3,4 -2,6 0,3 3,3 3,5 0,2 -3,0 -5,5 -3,5 -2,12 2,12 4,1 10,-1 10,-1z"/>
     <path class="fil2" d="M920 66c6,1 12,4 16,7 0,0 -6,-1 -8,1 -2,2 -5,7 -8,0 -2,-6 0,-8 0,-8z"/>
     <path class="fil2" d="M870 81c9,-11 22,-17 37,-17 0,0 -3,2 3,5 7,4 4,5 2,6 -1,2 -3,-2 -5,-4 -1,-2 -8,-5 -13,-3 -5,1 -9,3 -8,4 1,2 9,-1 12,-1 3,0 2,2 -1,4 -3,3 -3,6 0,7 3,2 7,2 8,1 1,-1 -1,-8 5,-5 6,3 11,5 6,9 -5,5 -11,10 -11,13 0,3 2,5 1,5 -2,0 -2,-1 -3,-2 -1,-1 -4,-1 -6,-1 -1,1 -4,3 -3,5 2,3 4,2 7,3 2,1 4,5 4,6 -1,1 -3,0 -4,-4 -2,-3 -5,-1 -7,-1 -2,-1 -4,-1 -6,-5 -2,-3 -7,-5 -8,-7 -5,-6 -5,-10 -6,-13 -1,-2 -4,-5 -4,-5z"/>
     <path class="fil2" d="M912 114c0,0 5,1 8,3 3,2 3,3 7,4 4,1 6,3 3,8 -2,4 -7,11 -9,13 -3,3 -6,4 -7,8 -1,3 -1,6 1,7 0,0 -1,3 -4,-1 -3,-4 0,-8 0,-11 1,-3 2,-11 1,-13 -1,-2 -5,-3 -6,-7 -1,-4 1,-12 6,-11z"/>
    </g>
   </g>
   <line class="fil3 str0" x1="48" y1="196" x2="1153" y2= "196" />
   <g>
    <path class="fil0" d="M66 242l5 1c-1,4 -3,7 -6,9 -2,2 -5,3 -9,3 -4,0 -7,-1 -9,-2 -2,-2 -4,-4 -5,-7 -2,-3 -2,-6 -2,-9 0,-4 1,-7 2,-10 1,-2 3,-4 6,-6 2,-1 5,-2 8,-2 4,0 7,1 9,3 2,2 4,4 5,7l-5 1c0,-2 -2,-4 -3,-5 -2,-1 -4,-2 -6,-2 -3,0 -5,1 -7,2 -1,1 -3,3 -3,5 -1,2 -1,5 -1,7 0,3 0,5 1,8 1,2 2,3 4,5 2,1 4,1 6,1 2,0 5,-1 6,-2 2,-2 3,-4 4,-7zm9 -4c0,-6 1,-11 4,-14 4,-3 8,-5 12,-5 4,0 7,1 9,2 3,2 5,4 6,7 1,3 2,6 2,9 0,4 -1,7 -2,10 -1,2 -3,5 -6,6 -3,1 -6,2 -9,2 -3,0 -6,-1 -8,-2 -3,-2 -5,-4 -6,-7 -2,-3 -2,-5 -2,-8zm5 0c0,4 1,7 3,10 2,2 5,3 8,3 4,0 7,-1 9,-4 2,-2 3,-5 3,-10 0,-3 0,-5 -1,-7 -1,-2 -2,-4 -4,-5 -2,-1 -4,-2 -6,-2 -4,0 -7,1 -9,3 -2,3 -3,6 -3,12zm34 16l0 -34 5 0 18 27 0 -27 4 0 0 34 -4 0 -19 -27 0 27 -4 0zm34 -11l4 0c0,2 1,3 1,4 1,1 2,2 4,3 1,1 3,1 5,1 2,0 4,0 5,-1 1,0 2,-1 3,-2 1,-1 1,-2 1,-3 0,-1 0,-2 -1,-3 -1,-1 -2,-1 -3,-2 -1,0 -3,-1 -6,-2 -4,0 -6,-1 -7,-2 -2,-1 -3,-2 -4,-3 -1,-1 -1,-3 -1,-4 0,-2 0,-4 1,-5 1,-2 3,-3 5,-4 2,-1 4,-1 6,-1 3,0 5,0 7,1 2,1 3,2 5,4 1,2 1,3 1,5l-4 1c0,-2 -1,-4 -3,-5 -1,-1 -3,-2 -6,-2 -2,0 -4,1 -6,2 -1,1 -2,2 -2,3 0,2 1,3 2,3 1,1 3,2 7,3 3,1 6,2 7,2 2,1 4,2 5,4 1,1 1,3 1,5 0,2 0,3 -1,5 -1,2 -3,3 -5,4 -2,1 -4,1 -7,1 -3,0 -5,0 -7,-1 -3,-1 -4,-3 -5,-4 -2,-2 -2,-4 -2,-7zm56 -23l5 0 0 20c0,3 0,6 -1,8 -1,2 -2,4 -5,5 -2,1 -4,2 -8,2 -3,0 -6,0 -8,-2 -2,-1 -3,-2 -4,-4 -1,-3 -1,-6 -1,-9l0 -20 4 0 0 20c0,3 1,5 1,6 1,2 2,3 3,4 1,1 3,1 5,1 3,0 6,-1 7,-2 2,-2 2,-5 2,-9l0 -20zm12 34l0 -34 5 0 0 30 17 0 0 4 -22 0zm33 0l0 -30 -12 0 0 -4 28 0 0 4 -12 0 0 30 -4 0zm21 0l0 -34 5 0 0 34 -5 0zm13 0l0 -34 5 0 18 27 0 -27 5 0 0 34 -5 0 -18 -27 0 27 -5 0zm52 -13l0 -4 14 0 0 13c-2,1 -4,3 -7,4 -2,1 -5,1 -7,1 -4,0 -7,-1 -9,-2 -3,-2 -5,-4 -7,-6 -1,-3 -2,-6 -2,-10 0,-3 1,-6 2,-9 2,-3 4,-5 6,-7 3,-1 6,-2 10,-2 2,0 4,0 6,1 2,1 4,2 5,4 1,1 2,3 3,5l-4 2c-1,-2 -2,-4 -2,-5 -1,-1 -2,-1 -4,-2 -1,-1 -3,-1 -4,-1 -3,0 -4,0 -6,1 -1,1 -3,1 -4,3 -1,1 -1,2 -2,3 -1,2 -1,4 -1,7 0,3 0,6 2,8 1,2 2,3 4,4 2,1 4,2 7,2 2,0 4,0 5,-1 2,-1 4,-2 5,-3l0 -6 -10 0zm83 13l0 -30 -11 0 0 -4 27 0 0 4 -11 0 0 30 -5 0zm21 0l0 -34 25 0 0 4 -20 0 0 10 19 0 0 5 -19 0 0 11 21 0 0 4 -26 0zm57 -12l5 1c-1,4 -3,7 -5,9 -3,2 -6,3 -10,3 -3,0 -6,-1 -9,-2 -2,-2 -4,-4 -5,-7 -1,-3 -2,-6 -2,-9 0,-4 1,-7 2,-10 1,-2 3,-4 6,-6 3,-1 5,-2 8,-2 4,0 7,1 9,3 3,2 4,4 5,7l-4 1c-1,-2 -2,-4 -4,-5 -1,-1 -3,-2 -6,-2 -2,0 -5,1 -6,2 -2,1 -3,3 -4,5 -1,2 -1,5 -1,7 0,3 0,5 1,8 1,2 2,3 4,5 2,1 4,1 6,1 3,0 5,-1 6,-2 2,-2 3,-4 4,-7zm11 12l0 -34 4 0 0 14 18 0 0 -14 5 0 0 34 -5 0 0 -16 -18 0 0 16 -4 0zm34 0l0 -34 5 0 18 27 0 -27 5 0 0 34 -5 0 -18 -27 0 27 -5 0zm34 -16c0,-6 2,-11 5,-14 3,-3 7,-5 12,-5 3,0 6,1 9,2 2,2 4,4 5,7 2,3 2,6 2,9 0,4 0,7 -2,10 -1,2 -3,5 -6,6 -2,1 -5,2 -8,2 -3,0 -6,-1 -9,-2 -3,-2 -4,-4 -6,-7 -1,-3 -2,-5 -2,-8zm5 0c0,4 1,7 3,10 3,2 5,3 9,3 3,0 6,-1 8,-4 3,-2 4,-5 4,-10 0,-3 -1,-5 -2,-7 -1,-2 -2,-4 -4,-5 -2,-1 -4,-2 -6,-2 -3,0 -6,1 -9,3 -2,3 -3,6 -3,12zm34 16l0 -34 5 0 0 30 17 0 0 4 -22 0zm26 -16c0,-6 2,-11 5,-14 3,-3 7,-5 12,-5 3,0 6,1 8,2 3,2 5,4 6,7 2,3 2,6 2,9 0,4 0,7 -2,10 -1,2 -3,5 -6,6 -3,1 -5,2 -8,2 -4,0 -7,-1 -9,-2 -3,-2 -5,-4 -6,-7 -1,-3 -2,-5 -2,-8zm5 0c0,4 1,7 3,10 2,2 5,3 9,3 3,0 6,-1 8,-4 2,-2 4,-5 4,-10 0,-3 -1,-5 -2,-7 -1,-2 -2,-4 -4,-5 -2,-1 -4,-2 -6,-2 -4,0 -6,1 -9,3 -2,3 -3,6 -3,12zm50 3l0 -4 15 0 0 13c-2,1 -4,3 -7,4 -2,1 -5,1 -7,1 -4,0 -7,-1 -10,-2 -2,-2 -4,-4 -6,-6 -1,-3 -2,-6 -2,-10 0,-3 1,-6 2,-9 2,-3 4,-5 6,-7 3,-1 6,-2 9,-2 3,0 5,0 7,1 2,1 4,2 5,4 1,1 2,3 3,5l-4 2c-1,-2 -2,-4 -2,-5 -1,-1 -2,-1 -4,-2 -1,-1 -3,-1 -5,-1 -2,0 -3,0 -5,1 -2,1 -3,1 -4,3 -1,1 -1,2 -2,3 -1,2 -1,4 -1,7 0,3 0,6 1,8 1,2 3,3 5,4 2,1 4,2 7,2 2,0 3,0 5,-1 2,-1 4,-2 5,-3l0 -6 -11 0zm32 13l0 -14 -14 -20 6 0 7 10c1,2 2,4 3,6 1,-2 3,-4 4,-6l7 -10 5 0 -14 20 0 14 -4 0zm74 -16c0,-6 2,-11 5,-14 3,-3 7,-5 12,-5 3,0 6,1 8,2 3,2 5,4 6,7 2,3 2,6 2,9 0,4 0,7 -2,10 -1,2 -3,5 -6,6 -2,1 -5,2 -8,2 -4,0 -6,-1 -9,-2 -3,-2 -5,-4 -6,-7 -1,-3 -2,-5 -2,-8zm5 0c0,4 1,7 3,10 3,2 5,3 9,3 3,0 6,-1 8,-4 3,-2 4,-5 4,-10 0,-3 -1,-5 -2,-7 -1,-2 -2,-4 -4,-5 -2,-1 -4,-2 -6,-2 -3,0 -6,1 -9,3 -2,3 -3,6 -3,12zm57 -18l5 0 0 20c0,3 -1,6 -1,8 -1,2 -3,4 -5,5 -2,1 -4,2 -8,2 -3,0 -6,0 -8,-2 -2,-1 -3,-2 -4,-4 -1,-3 -2,-6 -2,-9l0 -20 5 0 0 20c0,3 0,5 1,6 0,2 1,3 3,4 1,1 3,1 5,1 3,0 6,-1 7,-2 1,-2 2,-5 2,-9l0 -20zm21 34l0 -30 -11 0 0 -4 27 0 0 4 -11 0 0 30 -5 0zm20 -11l4 0c0,2 1,3 1,4 1,1 2,2 4,3 1,1 3,1 5,1 2,0 3,0 5,-1 1,0 2,-1 3,-2 0,-1 1,-2 1,-3 0,-1 0,-2 -1,-3 -1,-1 -2,-1 -3,-2 -1,0 -3,-1 -6,-2 -4,0 -6,-1 -7,-2 -2,-1 -3,-2 -4,-3 -1,-1 -1,-3 -1,-4 0,-2 0,-4 1,-5 1,-2 3,-3 5,-4 2,-1 4,-1 6,-1 3,0 5,0 7,1 2,1 3,2 5,4 1,2 1,3 1,5l-4 1c0,-2 -1,-4 -3,-5 -1,-1 -3,-2 -6,-2 -2,0 -4,1 -6,2 -1,1 -2,2 -2,3 0,2 1,3 2,3 1,1 3,2 7,3 3,1 6,2 7,2 2,1 4,2 5,4 1,1 1,3 1,5 0,2 0,3 -1,5 -1,2 -3,3 -5,4 -2,1 -4,1 -7,1 -3,0 -5,0 -7,-1 -3,-1 -4,-3 -5,-4 -2,-2 -2,-4 -2,-7zm32 -5c0,-6 2,-11 5,-14 3,-3 7,-5 12,-5 3,0 6,1 8,2 3,2 5,4 6,7 2,3 2,6 2,9 0,4 0,7 -2,10 -1,2 -3,5 -6,6 -2,1 -5,2 -8,2 -4,0 -6,-1 -9,-2 -3,-2 -5,-4 -6,-7 -1,-3 -2,-5 -2,-8zm5 0c0,4 1,7 3,10 2,2 5,3 9,3 3,0 6,-1 8,-4 3,-2 4,-5 4,-10 0,-3 -1,-5 -2,-7 -1,-2 -2,-4 -4,-5 -2,-1 -4,-2 -6,-2 -3,0 -6,1 -9,3 -2,3 -3,6 -3,12zm57 -18l5 0 0 20c0,3 -1,6 -1,8 -1,2 -3,4 -5,5 -2,1 -5,2 -8,2 -3,0 -6,0 -8,-2 -2,-1 -3,-2 -4,-4 -1,-3 -2,-6 -2,-9l0 -20 5 0 0 20c0,3 0,5 1,6 0,2 1,3 3,4 1,1 3,1 5,1 3,0 6,-1 7,-2 1,-2 2,-5 2,-9l0 -20zm12 34l0 -34 16 0c3,0 5,0 7,1 2,0 3,1 4,3 1,1 1,3 1,5 0,3 -1,5 -2,6 -2,2 -4,3 -8,4 2,0 3,1 3,1 2,2 3,3 4,5l6 9 -6 0 -4 -7c-2,-2 -3,-3 -4,-5 0,-1 -1,-1 -2,-2 -1,0 -1,-1 -2,-1 -1,0 -1,0 -3,0l-5 0 0 15 -5 0zm5 -19l10 0c2,0 4,0 5,-1 1,0 2,-1 3,-2 0,-1 1,-2 1,-3 0,-1 -1,-3 -2,-4 -1,-1 -3,-1 -6,-1l-11 0 0 11zm55 7l5 1c-1,4 -3,7 -5,9 -3,2 -6,3 -10,3 -3,0 -6,-1 -9,-2 -2,-2 -4,-4 -5,-7 -1,-3 -2,-6 -2,-9 0,-4 1,-7 2,-10 2,-2 4,-4 6,-6 3,-1 6,-2 9,-2 3,0 6,1 8,3 3,2 4,4 5,7l-4 1c-1,-2 -2,-4 -4,-5 -1,-1 -3,-2 -6,-2 -2,0 -4,1 -6,2 -2,1 -3,3 -4,5 -1,2 -1,5 -1,7 0,3 0,5 1,8 1,2 2,3 4,5 2,1 4,1 6,1 3,0 5,-1 7,-2 1,-2 3,-4 3,-7zm11 12l0 -34 5 0 0 34 -5 0zm13 0l0 -34 5 0 18 27 0 -27 4 0 0 34 -4 0 -19 -27 0 27 -4 0zm51 -13l0 -4 15 0 0 13c-2,1 -4,3 -7,4 -2,1 -5,1 -7,1 -4,0 -7,-1 -10,-2 -2,-2 -4,-4 -6,-6 -1,-3 -2,-6 -2,-10 0,-3 1,-6 2,-9 2,-3 4,-5 6,-7 3,-1 6,-2 9,-2 3,0 5,0 7,1 2,1 4,2 5,4 1,1 2,3 3,5l-5 2c0,-2 -1,-4 -1,-5 -1,-1 -2,-1 -4,-2 -1,-1 -3,-1 -5,-1 -2,0 -3,0 -5,1 -2,1 -3,1 -4,3 -1,1 -1,2 -2,3 -1,2 -1,4 -1,7 0,3 0,6 1,8 1,2 3,3 5,4 2,1 4,2 7,2 2,0 3,0 5,-1 2,-1 4,-2 5,-3l0 -6 -11 0z"/>
    <path class="fil4" d="M369 236l2 -6c4,2 8,3 10,4 -1,-5 -1,-8 -1,-10l6 0c0,3 0,6 -1,10 3,-1 6,-3 10,-4l2 6c-4,1 -7,2 -11,3 2,1 5,4 8,8l-5 3c-2,-2 -4,-5 -6,-9 -2,4 -4,7 -6,9l-5 -3c4,-4 6,-7 7,-8 -3,-1 -7,-2 -10,-3z"/>
    <path class="fil4" d="M759 236l2 -6c4,2 7,3 9,4 0,-5 0,-8 0,-10l6 0c0,3 -1,6 -1,10 3,-1 6,-3 10,-4l2 6c-4,1 -7,2 -11,3 2,1 4,4 8,8l-6 3c-1,-2 -3,-5 -5,-9 -3,4 -4,7 -6,9l-5 -3c3,-4 6,-7 7,-8 -4,-1 -7,-2 -10,-3z"/>
   </g>
  </g>
 </g>
</svg>
